<svg width="184" height="40" viewBox="0 0 184 40" fill="none" xmlns="http://www.w3.org/2000/svg">
<rect x="156.871" y="31.563" width="21.5126" height="4.03361" fill="#FF6702"/>
<path d="M0 35.3725V4H13.6246C15.5966 4 17.3147 4.3436 18.7787 5.03081C20.2428 5.71802 21.3782 6.68908 22.1849 7.94398C22.9916 9.19888 23.395 10.6779 23.395 12.381V12.9188C23.395 14.8011 22.9468 16.3249 22.0504 17.4902C21.1541 18.6555 20.0485 19.507 18.7339 20.0448V20.8515C19.929 20.9113 20.8553 21.3296 21.5126 22.1064C22.1699 22.8534 22.4986 23.8543 22.4986 25.1092V35.3725H16.5826V25.9608C16.5826 25.2437 16.3884 24.6611 16 24.2129C15.6415 23.7647 15.0289 23.5406 14.1625 23.5406H5.91597V35.3725H0ZM5.91597 18.1625H12.9972C14.4015 18.1625 15.4921 17.789 16.2689 17.042C17.0756 16.2652 17.479 15.2493 17.479 13.9944V13.5462C17.479 12.2913 17.0906 11.2904 16.3137 10.5434C15.5369 9.76657 14.4314 9.37815 12.9972 9.37815H5.91597V18.1625Z" fill="white"/>
<path d="M37.2812 36C35.0701 36 33.1131 35.5369 31.41 34.6106C29.7368 33.6545 28.4221 32.3249 27.466 30.6218C26.5398 28.8889 26.0767 26.8571 26.0767 24.5266V23.9888C26.0767 21.6583 26.5398 19.6415 27.466 17.9384C28.3923 16.2054 29.692 14.8758 31.3652 13.9496C33.0384 12.9935 34.9805 12.5154 37.1915 12.5154C39.3727 12.5154 41.27 13.0084 42.8834 13.9944C44.4968 14.9505 45.7517 16.2951 46.6481 18.028C47.5445 19.7311 47.9926 21.718 47.9926 23.9888V25.916H31.8134C31.8731 27.4398 32.4408 28.6797 33.5165 29.6359C34.5921 30.592 35.9067 31.07 37.4604 31.07C39.044 31.07 40.2093 30.7264 40.9562 30.0392C41.7032 29.352 42.2709 28.5901 42.6593 27.7535L47.2756 30.1737C46.8573 30.9505 46.2447 31.8021 45.438 32.7283C44.6612 33.6246 43.6154 34.4015 42.3008 35.0588C40.9861 35.6863 39.3129 36 37.2812 36ZM31.8582 21.7031H42.2559C42.1364 20.4183 41.6136 19.3875 40.6873 18.6106C39.791 17.8338 38.6108 17.4454 37.1467 17.4454C35.6229 17.4454 34.4128 17.8338 33.5165 18.6106C32.6201 19.3875 32.0673 20.4183 31.8582 21.7031Z" fill="white"/>
<path d="M53.3795 35.3725L50.2423 13.1429H55.8445L57.8165 31.563H58.6232L61.4916 13.1429H70.5448L73.4131 31.563H74.2199L76.1919 13.1429H81.7941L78.6569 35.3725H69.2899L66.4216 16.9524H65.6148L62.7465 35.3725H53.3795Z" fill="white"/>
<path d="M95.8771 36C93.6661 36 91.6791 35.5518 89.9163 34.6555C88.1535 33.7591 86.7641 32.4594 85.7482 30.7563C84.7324 29.0532 84.2244 27.0065 84.2244 24.6162V23.8992C84.2244 21.5089 84.7324 19.4622 85.7482 17.7591C86.7641 16.056 88.1535 14.7563 89.9163 13.8599C91.6791 12.9636 93.6661 12.5154 95.8771 12.5154C98.0881 12.5154 100.075 12.9636 101.838 13.8599C103.601 14.7563 104.99 16.056 106.006 17.7591C107.022 19.4622 107.53 21.5089 107.53 23.8992V24.6162C107.53 27.0065 107.022 29.0532 106.006 30.7563C104.99 32.4594 103.601 33.7591 101.838 34.6555C100.075 35.5518 98.0881 36 95.8771 36ZM95.8771 30.9804C97.61 30.9804 99.0442 30.4276 100.18 29.3221C101.315 28.1867 101.883 26.5733 101.883 24.4818V24.0336C101.883 21.9421 101.315 20.3436 100.18 19.2381C99.0741 18.1027 97.6399 17.535 95.8771 17.535C94.1441 17.535 92.7099 18.1027 91.5746 19.2381C90.4392 20.3436 89.8715 21.9421 89.8715 24.0336V24.4818C89.8715 26.5733 90.4392 28.1867 91.5746 29.3221C92.7099 30.4276 94.1441 30.9804 95.8771 30.9804Z" fill="white"/>
<path d="M111.398 35.3725V13.1429H116.955V15.6527H117.762C118.091 14.7563 118.628 14.099 119.375 13.6807C120.152 13.2624 121.049 13.0532 122.064 13.0532H124.753V18.0728H121.975C120.541 18.0728 119.36 18.4613 118.434 19.2381C117.508 19.9851 117.045 21.1503 117.045 22.7339V35.3725H111.398Z" fill="white"/>
<path d="M135.999 36C134.236 36 132.577 35.5668 131.024 34.7003C129.5 33.8039 128.275 32.5042 127.349 30.8011C126.422 29.098 125.959 27.0364 125.959 24.6162V23.8992C125.959 21.479 126.422 19.4174 127.349 17.7143C128.275 16.0112 129.5 14.7264 131.024 13.8599C132.548 12.9636 134.206 12.5154 135.999 12.5154C137.343 12.5154 138.464 12.6797 139.36 13.0084C140.286 13.3072 141.033 13.6956 141.601 14.1737C142.169 14.6517 142.602 15.1597 142.901 15.6975H143.707V4H149.354V35.3725H143.797V32.6835H142.99C142.482 33.5201 141.69 34.282 140.615 34.9692C139.569 35.6564 138.03 36 135.999 36ZM137.702 31.07C139.435 31.07 140.884 30.5173 142.049 29.4118C143.214 28.2764 143.797 26.6331 143.797 24.4818V24.0336C143.797 21.8824 143.214 20.254 142.049 19.1485C140.914 18.0131 139.464 17.4454 137.702 17.4454C135.969 17.4454 134.52 18.0131 133.354 19.1485C132.189 20.254 131.606 21.8824 131.606 24.0336V24.4818C131.606 26.6331 132.189 28.2764 133.354 29.4118C134.52 30.5173 135.969 31.07 137.702 31.07Z" fill="white"/>
</svg>
